<svg xmlns="http://www.w3.org/2000/svg" aria-hidden="true" style="position:absolute;width:0;height:0;overflow:hidden">
  <defs>
    <symbol id="icon-Vector" viewBox="0 0 40 32">
      <path fill="#f4f4fd" d="M33.84 1.96c.66-.58 1.54-.9 2.44-.9s1.78.34 2.43.93c.65.59 1.02 1.39 1.04 2.22s-.3 1.65-.91 2.27l-18.62 21.5a3.7 3.7 0 0 1-5.04.09L2.83 16.66c-.35-.3-.62-.66-.81-1.05a3.01 3.01 0 0 1 .72-3.6 3.79 3.79 0 0 1 3.9-.67c.43.18.81.43 1.13.75l9.78 9.01 16.2-19.06.1-.1z" style="fill:var(--color1, #f4f4fd)"/>
    </symbol>
  </defs>
</svg>
