<svg xmlns="http://www.w3.org/2000/svg" aria-hidden="true" style="position:absolute;width:0;height:0;overflow:hidden">
  <defs>
    <symbol id="icon-email" viewBox="0 0 24 32">
      <path d="M20 8H4a2 2 0 0 0-1.99 2L2 22c0 1.1.9 2 2 2h16a2 2 0 0 0 2-2V10a2 2 0 0 0-2-2zm-.4 4.25-7.07 4.42c-.32.2-.74.2-1.06 0L4.4 12.25a.85.85 0 1 1 .9-1.44L12 15l6.7-4.19a.85.85 0 1 1 .9 1.44z"/>
    </symbol>
    <symbol id="icon-person" viewBox="0 0 32 32">
      <path fill="#4d5ae5" d="M16 16a5.33 5.33 0 1 0 0-10.66A5.33 5.33 0 0 0 16 16zm0 2.67c-3.56 0-10.67 1.78-10.67 5.33v1.33c0 .74.6 1.34 1.34 1.34h18.66c.74 0 1.34-.6 1.34-1.34V24c0-3.55-7.11-5.33-10.67-5.33z" style="fill:var(--color1, #4d5ae5)"/>
    </symbol>
    <symbol id="icon-phone" viewBox="0 0 24 32">
      <path d="m19.64 18.49-2.46-.28a1.92 1.92 0 0 0-1.58.55l-1.77 1.77a14.51 14.51 0 0 1-6.36-6.36l1.78-1.78c.42-.42.62-1 .55-1.58l-.28-2.44a1.93 1.93 0 0 0-1.92-1.7H5.93c-1.09 0-2 .9-1.93 2a16.4 16.4 0 0 0 15.34 15.32c1.09.07 2-.83 2-1.93V20.4c0-.98-.73-1.8-1.7-1.92z"/>
    </symbol>
    <symbol id="icon-close" viewBox="0 0 32 32">
      <path d="M32 3.22 28.78 0 16 12.78 3.22 0 0 3.22 12.78 16 0 28.78 3.22 32 16 19.22 28.78 32 32 28.78 19.22 16 32 3.22z"/>
    </symbol>
  </defs>
</svg>
